# xmcd
#
# Track frame offsets:
#	150
#	20970
#	37587
#	56205
#	74692
#	98750
#	117865
#	145347
#	159345
#	179822
#	204615
#	223242
#	241725
#	264085
#
# Disc length: 3792 seconds
#
# Revision: 2
# Processed by: cddbd v1.4PL0 Copyright (c) Steve Scherf et al.
# Submitted via: EasyCDDAExtractor 5.1.0
#
DISCID=d00ece0e
DTITLE=Michael Hill's Blues Mob - Have Mercy!
DYEAR=1996
DGENRE=Blues
TTITLE0=Presumed Innocent
TTITLE1=Lost In The Sauce
TTITLE2=Bluestime In America
TTITLE3=Women Make The World Go 'Round
TTITLE4=Grandmother's Blues
TTITLE5=Africa Is Her Name
TTITLE6=Let's Talk About The Weather
TTITLE7=Backyard In Brooklyn
TTITLE8=Falling Through The Cracks
TTITLE9=Stagolee Perspective
TTITLE10=Sweeter Days
TTITLE11=Evil Spell
TTITLE12=Rest In Peace
TTITLE13=She's Gone
EXTD=
EXTT0=
EXTT1=
EXTT2=
EXTT3=
EXTT4=
EXTT5=
EXTT6=
EXTT7=
EXTT8=
EXTT9=
EXTT10=
EXTT11=
EXTT12=
EXTT13=
PLAYORDER=
